<svg viewBox="-28.41 -56.39 97.83 97.83" xmlns="http://www.w3.org/2000/svg" role="img" aria-label="Districo">
  <rect x="-28.41" y="-56.39" width="97.83" height="97.83" fill="#ffffff"/>
  <path d="M22.703999999999997 -34.452V-4.84Q22.703999999999997 -2.86 23.32 -1.914Q23.936 -0.968 25.52 -0.968V-0.044Q24.156 -0.176 22.791999999999998 -0.176Q20.944 -0.176 19.338 -0.044Q17.732 0.088 16.368 0.43999999999999995V-29.171999999999997Q16.368 -31.151999999999997 15.774 -32.098Q15.18 -33.044 13.552 -33.044V-33.967999999999996Q14.959999999999999 -33.836 16.279999999999998 -33.836Q18.084 -33.836 19.712 -33.989999999999995Q21.34 -34.144 22.703999999999997 -34.452ZM11.484 -23.363999999999997Q13.42 -23.363999999999997 14.893999999999998 -22.726Q16.368 -22.087999999999997 17.204 -20.592L16.676 -20.108Q16.104 -21.163999999999998 15.158 -21.625999999999998Q14.212 -22.087999999999997 13.155999999999999 -22.087999999999997Q10.911999999999999 -22.087999999999997 9.591999999999999 -19.47Q8.272 -16.852 8.315999999999999 -11.395999999999999Q8.315999999999999 -7.656 8.822 -5.433999999999999Q9.328 -3.2119999999999997 10.274 -2.2439999999999998Q11.219999999999999 -1.276 12.452 -1.276Q13.947999999999999 -1.276 15.136 -2.464Q16.323999999999998 -3.6519999999999997 16.412 -5.675999999999999L16.631999999999998 -4.136Q15.972 -1.8039999999999998 14.498 -0.5939999999999999Q13.024 0.616 10.648 0.616Q8.052 0.616 6.006 -0.6599999999999999Q3.96 -1.936 2.816 -4.598Q1.672 -7.26 1.672 -11.484Q1.672 -15.488 2.948 -18.106Q4.224 -20.724 6.446 -22.043999999999997Q8.668 -23.363999999999997 11.484 -23.363999999999997Z M33.088 -34.1Q34.936 -34.1 36.013999999999996 -33.198Q37.092 -32.296 37.092 -30.712Q37.092 -29.127999999999997 36.013999999999996 -28.226Q34.936 -27.323999999999998 33.088 -27.323999999999998Q31.24 -27.323999999999998 30.162 -28.226Q29.084 -29.127999999999997 29.084 -30.712Q29.084 -32.296 30.162 -33.198Q31.24 -34.1 33.088 -34.1ZM36.519999999999996 -23.232V-4.092Q36.519999999999996 -2.2439999999999998 37.158 -1.5839999999999999Q37.796 -0.9239999999999999 39.336 -0.9239999999999999V0.0Q38.544 -0.044 36.872 -0.10999999999999999Q35.199999999999996 -0.176 33.483999999999995 -0.176Q31.767999999999997 -0.176 30.007999999999996 -0.10999999999999999Q28.247999999999998 -0.044 27.368 0.0V-0.9239999999999999Q28.907999999999998 -0.9239999999999999 29.546 -1.5839999999999999Q30.183999999999997 -2.2439999999999998 30.183999999999997 -4.092V-17.951999999999998Q30.183999999999997 -19.932 29.589999999999996 -20.878Q28.996 -21.823999999999998 27.368 -21.823999999999998V-22.747999999999998Q28.775999999999996 -22.616 30.095999999999997 -22.616Q31.943999999999996 -22.616 33.55 -22.77Q35.156 -22.924 36.519999999999996 -23.232Z" fill="#111827"/>
  <circle cx="-10.53" cy="-10.50" r="5.2" fill="#e63946"/>
  <circle cx="51.54" cy="-10.50" r="5.2" fill="#e63946"/>
  <path d="M -10.53 -10.50 Q 20.50 19.50 51.54 -10.50" fill="none" stroke="#e63946" stroke-width="2.6" stroke-linecap="round" opacity="0.9"/>
</svg>
