<svg viewBox="-2.90 -32.32 146.19 91.08" xmlns="http://www.w3.org/2000/svg" role="img" aria-label="Districo - l'assistente per l'artigiano">
  <path d="M17.544 -26.622000000000003V-3.74Q17.544 -2.21 18.020000000000003 -1.479Q18.496000000000002 -0.748 19.720000000000002 -0.748V-0.034Q18.666 -0.136 17.612000000000002 -0.136Q16.184 -0.136 14.943000000000001 -0.034Q13.702000000000002 0.068 12.648000000000001 0.34V-22.542Q12.648000000000001 -24.072000000000003 12.189 -24.803000000000004Q11.73 -25.534000000000002 10.472000000000001 -25.534000000000002V-26.248Q11.56 -26.146 12.58 -26.146Q13.974 -26.146 15.232000000000001 -26.265Q16.490000000000002 -26.384 17.544 -26.622000000000003ZM8.874 -18.054000000000002Q10.370000000000001 -18.054000000000002 11.509 -17.561Q12.648000000000001 -17.068 13.294 -15.912L12.886000000000001 -15.538Q12.444 -16.354000000000003 11.713000000000001 -16.711000000000002Q10.982000000000001 -17.068 10.166 -17.068Q8.432 -17.068 7.412000000000001 -15.045000000000002Q6.392 -13.022 6.426 -8.806000000000001Q6.426 -5.916 6.817 -4.199Q7.208 -2.482 7.939 -1.7340000000000002Q8.67 -0.9860000000000001 9.622 -0.9860000000000001Q10.778 -0.9860000000000001 11.696000000000002 -1.9040000000000001Q12.614 -2.822 12.682 -4.386L12.852 -3.196Q12.342 -1.3940000000000001 11.203 -0.4590000000000001Q10.064 0.47600000000000003 8.228 0.47600000000000003Q6.222 0.47600000000000003 4.641 -0.51Q3.06 -1.496 2.176 -3.553Q1.292 -5.61 1.292 -8.874Q1.292 -11.968 2.278 -13.991000000000001Q3.2640000000000002 -16.014000000000003 4.981 -17.034000000000002Q6.698 -18.054000000000002 8.874 -18.054000000000002Z M25.568 -26.35Q26.996000000000002 -26.35 27.829 -25.653000000000002Q28.662000000000003 -24.956000000000003 28.662000000000003 -23.732000000000003Q28.662000000000003 -22.508000000000003 27.829 -21.811Q26.996000000000002 -21.114 25.568 -21.114Q24.14 -21.114 23.307000000000002 -21.811Q22.474 -22.508000000000003 22.474 -23.732000000000003Q22.474 -24.956000000000003 23.307000000000002 -25.653000000000002Q24.14 -26.35 25.568 -26.35ZM28.220000000000002 -17.952V-3.1620000000000004Q28.220000000000002 -1.7340000000000002 28.713 -1.2240000000000002Q29.206000000000003 -0.7140000000000001 30.396 -0.7140000000000001V0.0Q29.784 -0.034 28.492 -0.085Q27.200000000000003 -0.136 25.874000000000002 -0.136Q24.548000000000002 -0.136 23.188000000000002 -0.085Q21.828 -0.034 21.148 0.0V-0.7140000000000001Q22.338 -0.7140000000000001 22.831000000000003 -1.2240000000000002Q23.324 -1.7340000000000002 23.324 -3.1620000000000004V-13.872000000000002Q23.324 -15.402000000000001 22.865000000000002 -16.133000000000003Q22.406000000000002 -16.864 21.148 -16.864V-17.578000000000003Q22.236 -17.476000000000003 23.256 -17.476000000000003Q24.684 -17.476000000000003 25.925 -17.595000000000002Q27.166 -17.714000000000002 28.220000000000002 -17.952Z M48.042 -18.054000000000002Q49.47 -18.054000000000002 50.541 -17.697000000000003Q51.612 -17.34 52.088 -17.0Q53.244 -16.218 53.516 -18.02H54.230000000000004Q54.162 -17.068 54.128 -15.691000000000003Q54.094 -14.314000000000002 54.094 -12.036000000000001H53.38Q53.21 -13.294 52.734 -14.518Q52.258 -15.742 51.357 -16.524Q50.456 -17.306 49.028 -17.306Q48.042 -17.306 47.362 -16.745Q46.682 -16.184 46.682 -15.13Q46.682 -14.110000000000001 47.294 -13.345Q47.906 -12.58 48.875 -11.883Q49.844 -11.186 50.897999999999996 -10.404Q52.02 -9.554 52.938 -8.721Q53.856 -7.888000000000001 54.400000000000006 -6.902000000000001Q54.944 -5.916 54.944 -4.556Q54.944 -3.0260000000000002 54.06 -1.887Q53.176 -0.748 51.731 -0.13599999999999998Q50.286 0.47600000000000003 48.518 0.47600000000000003Q47.498 0.47600000000000003 46.699 0.272Q45.9 0.068 45.322 -0.23800000000000002Q44.88 -0.44200000000000006 44.489000000000004 -0.629Q44.098 -0.8160000000000001 43.758 -0.9520000000000001Q43.418 -1.054 43.163 -0.714Q42.908 -0.374 42.772 0.23800000000000002H42.058Q42.126 -0.8500000000000001 42.16 -2.414Q42.194 -3.978 42.194 -6.562H42.908Q43.112 -4.726 43.656000000000006 -3.315Q44.2 -1.9040000000000001 45.135000000000005 -1.105Q46.07 -0.30600000000000005 47.498 -0.30600000000000005Q48.076 -0.30600000000000005 48.620000000000005 -0.544Q49.164 -0.782 49.521 -1.326Q49.878 -1.87 49.878 -2.72Q49.878 -4.216 48.909 -5.202Q47.94 -6.188000000000001 46.444 -7.344Q45.356 -8.228 44.387 -9.095Q43.418 -9.962000000000002 42.806 -10.999000000000002Q42.194 -12.036000000000001 42.194 -13.362Q42.194 -14.892000000000001 43.010000000000005 -15.946000000000002Q43.826 -17.0 45.169 -17.527Q46.512 -18.054000000000002 48.042 -18.054000000000002Z M63.92000000000001 -23.154V-17.578000000000003H67.932V-16.898H63.92000000000001V-3.1620000000000004Q63.92000000000001 -2.1420000000000003 64.29400000000001 -1.717Q64.668 -1.292 65.41600000000001 -1.292Q66.028 -1.292 66.64000000000001 -1.751Q67.25200000000001 -2.21 67.72800000000001 -3.3320000000000003L68.30600000000001 -3.0260000000000002Q67.762 -1.496 66.65700000000001 -0.51Q65.552 0.47600000000000003 63.648 0.47600000000000003Q62.526 0.47600000000000003 61.676 0.187Q60.82600000000001 -0.10200000000000001 60.248000000000005 -0.68Q59.50000000000001 -1.4280000000000002 59.26200000000001 -2.5330000000000004Q59.02400000000001 -3.6380000000000003 59.02400000000001 -5.406000000000001V-16.898H56.168000000000006V-17.578000000000003H59.02400000000001V-22.066000000000003Q60.452000000000005 -22.066000000000003 61.659000000000006 -22.321Q62.86600000000001 -22.576 63.92000000000001 -23.154Z M80.682 -18.054000000000002Q81.77000000000001 -18.054000000000002 82.45 -17.595000000000002Q83.13 -17.136000000000003 83.453 -16.422000000000004Q83.77600000000001 -15.708000000000002 83.77600000000001 -14.926000000000002Q83.77600000000001 -13.668000000000001 83.04500000000002 -12.869Q82.31400000000001 -12.07 81.124 -12.07Q79.934 -12.07 79.271 -12.665000000000001Q78.608 -13.260000000000002 78.608 -14.246Q78.608 -15.198 79.033 -15.827Q79.458 -16.456 80.104 -16.898Q79.628 -17.034000000000002 79.152 -16.864Q78.506 -16.762 77.928 -16.337Q77.35000000000001 -15.912 76.94200000000001 -15.283000000000001Q76.534 -14.654000000000002 76.296 -13.923000000000002Q76.058 -13.192 76.058 -12.512V-3.5020000000000002Q76.058 -1.87 76.857 -1.292Q77.656 -0.7140000000000001 79.254 -0.7140000000000001V0.0Q78.47200000000001 -0.034 76.976 -0.085Q75.48 -0.136 73.848 -0.136Q72.488 -0.136 71.094 -0.085Q69.7 -0.034 68.986 0.0V-0.7140000000000001Q70.176 -0.7140000000000001 70.66900000000001 -1.2240000000000002Q71.162 -1.7340000000000002 71.162 -3.1620000000000004V-13.872000000000002Q71.162 -15.402000000000001 70.703 -16.133000000000003Q70.244 -16.864 68.986 -16.864V-17.578000000000003Q70.074 -17.476000000000003 71.09400000000001 -17.476000000000003Q72.522 -17.476000000000003 73.763 -17.595000000000002Q75.004 -17.714000000000002 76.058 -17.952V-14.790000000000001Q76.46600000000001 -15.708000000000002 77.14600000000002 -16.456000000000003Q77.82600000000001 -17.204 78.71000000000001 -17.629Q79.59400000000001 -18.054000000000002 80.682 -18.054000000000002Z M91.936 -17.952V-3.1620000000000004Q91.936 -1.7340000000000002 92.429 -1.2240000000000002Q92.922 -0.7140000000000001 94.112 -0.7140000000000001V0.0Q93.5 -0.034 92.208 -0.085Q90.916 -0.136 89.59 -0.136Q88.264 -0.136 86.904 -0.085Q85.544 -0.034 84.864 0.0V-0.7140000000000001Q86.054 -0.7140000000000001 86.547 -1.2240000000000002Q87.04 -1.7340000000000002 87.04 -3.1620000000000004V-13.872000000000002Q87.04 -15.402000000000001 86.581 -16.133000000000003Q86.122 -16.864 84.864 -16.864V-17.578000000000003Q85.952 -17.476000000000003 86.97200000000001 -17.476000000000003Q88.4 -17.476000000000003 89.641 -17.595000000000002Q90.882 -17.714000000000002 91.936 -17.952Z M113.86600000000001 -18.054000000000002Q115.19200000000001 -18.054000000000002 116.29700000000001 -17.765Q117.40200000000002 -17.476000000000003 118.11600000000001 -17.034000000000002Q119.00000000000001 -16.490000000000002 119.49300000000001 -15.691000000000003Q119.986 -14.892000000000001 119.986 -13.838000000000001Q119.986 -12.648000000000001 119.238 -11.883000000000001Q118.49000000000001 -11.118 117.30000000000001 -11.118Q116.11000000000001 -11.118 115.39600000000002 -11.798000000000002Q114.68200000000002 -12.478000000000002 114.68200000000002 -13.634Q114.68200000000002 -14.722000000000001 115.36200000000001 -15.453000000000001Q116.042 -16.184 116.92600000000002 -16.422Q116.65400000000001 -16.762 116.11000000000001 -17.0Q115.566 -17.238 114.88600000000001 -17.238Q113.83200000000001 -17.238 113.03300000000002 -16.626Q112.23400000000001 -16.014000000000003 111.69000000000001 -14.926000000000002Q111.14600000000002 -13.838000000000001 110.85700000000001 -12.376000000000001Q110.56800000000001 -10.914000000000001 110.56800000000001 -9.180000000000001Q110.56800000000001 -6.562 111.23100000000001 -5.066000000000001Q111.894 -3.5700000000000003 112.93100000000001 -2.958Q113.968 -2.346 115.09 -2.346Q115.736 -2.346 116.501 -2.55Q117.266 -2.754 118.065 -3.366Q118.864 -3.978 119.54400000000001 -5.1000000000000005L120.12200000000001 -4.896000000000001Q119.748 -3.6380000000000003 118.898 -2.3800000000000003Q118.048 -1.122 116.688 -0.32300000000000006Q115.328 0.47600000000000003 113.35600000000001 0.47600000000000003Q111.14600000000002 0.47600000000000003 109.36100000000002 -0.4930000000000001Q107.57600000000001 -1.4620000000000002 106.50500000000001 -3.4850000000000003Q105.43400000000001 -5.508 105.43400000000001 -8.704Q105.43400000000001 -11.764000000000001 106.53900000000002 -13.855Q107.644 -15.946000000000002 109.548 -17.0Q111.45200000000001 -18.054000000000002 113.86600000000001 -18.054000000000002Z M130.662 -18.054000000000002Q133.144 -18.054000000000002 135.014 -17.136000000000003Q136.88400000000001 -16.218 137.93800000000002 -14.178Q138.99200000000002 -12.138000000000002 138.99200000000002 -8.772Q138.99200000000002 -5.406000000000001 137.93800000000002 -3.3830000000000005Q136.88400000000001 -1.36 135.014 -0.44200000000000006Q133.144 0.47600000000000003 130.662 0.47600000000000003Q128.24800000000002 0.47600000000000003 126.36100000000002 -0.44200000000000006Q124.47400000000002 -1.36 123.40300000000002 -3.3830000000000005Q122.33200000000001 -5.406000000000001 122.33200000000001 -8.772Q122.33200000000001 -12.138000000000002 123.40300000000002 -14.178Q124.47400000000002 -16.218 126.36100000000002 -17.136000000000003Q128.24800000000002 -18.054000000000002 130.662 -18.054000000000002ZM130.662 -17.374000000000002Q129.30200000000002 -17.374000000000002 128.38400000000001 -15.351000000000003Q127.46600000000001 -13.328000000000001 127.46600000000001 -8.772Q127.46600000000001 -4.216 128.38400000000001 -2.21Q129.30200000000002 -0.20400000000000001 130.662 -0.20400000000000001Q132.056 -0.20400000000000001 132.957 -2.21Q133.858 -4.216 133.858 -8.772Q133.858 -13.328000000000001 132.957 -15.351000000000003Q132.056 -17.374000000000002 130.662 -17.374000000000002Z" fill="#111827"/>
  <path d="M35.768 -12.172Q37.094 -12.172 37.876000000000005 -11.475000000000001Q38.658 -10.778 38.658 -9.554000000000002Q38.658 -8.33 37.876000000000005 -7.633000000000001Q37.094 -6.936000000000001 35.768 -6.936000000000001Q34.442 -6.936000000000001 33.66 -7.633000000000001Q32.878 -8.33 32.878 -9.554000000000002Q32.878 -10.778 33.66 -11.475000000000001Q34.442 -12.172 35.768 -12.172Z M85.13600000000001 -27.778000000000002Q85.748 -28.322000000000003 86.58100000000002 -28.186Q87.41400000000002 -28.05 87.924 -27.404000000000003Q88.50200000000001 -26.758000000000003 88.84200000000001 -25.874000000000002Q89.18200000000002 -24.990000000000002 89.67500000000001 -23.749000000000002Q90.168 -22.508000000000003 91.15400000000001 -20.672L90.78000000000002 -20.366000000000003Q89.284 -21.76 88.21300000000001 -22.542Q87.14200000000001 -23.324 86.37700000000001 -23.868000000000002Q85.61200000000001 -24.412000000000003 85.034 -25.092000000000002Q84.49000000000001 -25.772000000000002 84.524 -26.537000000000003Q84.558 -27.302000000000003 85.13600000000001 -27.778000000000002Z M99.48400000000001 -12.172Q100.81 -12.172 101.59200000000001 -11.475000000000001Q102.37400000000001 -10.778 102.37400000000001 -9.554000000000002Q102.37400000000001 -8.33 101.59200000000001 -7.633000000000001Q100.81 -6.936000000000001 99.48400000000001 -6.936000000000001Q98.158 -6.936000000000001 97.376 -7.633000000000001Q96.59400000000001 -8.33 96.59400000000001 -9.554000000000002Q96.59400000000001 -10.778 97.376 -11.475000000000001Q98.158 -12.172 99.48400000000001 -12.172Z" fill="#e63946"/>
  <path d="M 35.77 -9.55 Q 67.63 30.45 99.48 -9.55" fill="none" stroke="#e63946" stroke-width="2.2" stroke-linecap="round" opacity="0.85"/>
  <g transform="translate(0.45 51.51)"><path d="M2.568 -9.06Q2.532 -8.76 2.466 -8.388Q2.4 -8.016 2.346 -7.656000000000001Q2.2920000000000003 -7.296 2.2560000000000002 -7.0200000000000005Q2.184 -6.516 2.112 -5.8740000000000006Q2.04 -5.232 1.968 -4.542Q1.8960000000000001 -3.852 1.842 -3.192Q1.788 -2.532 1.752 -1.986Q1.716 -1.44 1.716 -1.092Q1.716 -0.864 1.764 -0.666Q1.812 -0.468 2.04 -0.468Q2.244 -0.468 2.49 -0.726Q2.736 -0.984 2.916 -1.6320000000000001L3.2520000000000002 -1.548Q3.216 -1.344 3.1020000000000003 -1.056Q2.988 -0.768 2.7960000000000003 -0.498Q2.604 -0.228 2.334 -0.048Q2.064 0.132 1.704 0.132Q1.212 0.132 0.984 -0.11399999999999999Q0.756 -0.36 0.744 -0.84Q0.732 -1.1400000000000001 0.774 -1.728Q0.8160000000000001 -2.316 0.8820000000000001 -3.066Q0.9480000000000001 -3.8160000000000003 1.032 -4.638Q1.116 -5.46 1.2120000000000002 -6.24Q1.308 -7.0200000000000005 1.3920000000000001 -7.656000000000001Q1.452 -7.98 1.47 -8.082Q1.488 -8.184000000000001 1.5 -8.304Q1.284 -8.292 1.074 -8.280000000000001Q0.864 -8.268 0.648 -8.256L0.708 -8.736Q1.236 -8.736 1.53 -8.784Q1.824 -8.832 1.98 -8.904Q2.136 -8.976 2.232 -9.06Z M5.412 -8.592 5.148 -5.892H4.344L4.404 -8.592Z M9.444 -6.132000000000001Q9.804 -6.132000000000001 10.236 -6.078Q10.668 -6.024 11.052 -5.928Q10.956 -5.208 10.866 -4.494Q10.776 -3.7800000000000002 10.698 -3.138Q10.620000000000001 -2.496 10.572000000000001 -1.986Q10.524000000000001 -1.476 10.524000000000001 -1.188Q10.524000000000001 -0.9480000000000001 10.56 -0.7080000000000001Q10.596 -0.468 10.86 -0.468Q11.064 -0.468 11.31 -0.732Q11.556000000000001 -0.996 11.736 -1.6320000000000001L12.072000000000001 -1.56Q12.036000000000001 -1.344 11.922 -1.062Q11.808 -0.78 11.616 -0.504Q11.424 -0.228 11.148 -0.048Q10.872 0.132 10.512 0.132Q10.032 0.132 9.828 -0.168Q9.624 -0.468 9.624 -0.9480000000000001Q9.624 -1.296 9.690000000000001 -1.7040000000000002Q9.756 -2.112 9.84 -2.556H9.804Q9.516000000000002 -1.668 9.21 -1.134Q8.904 -0.6 8.598 -0.324Q8.292000000000002 -0.048 8.004000000000001 0.042Q7.716000000000001 0.132 7.464 0.132Q6.816000000000001 0.132 6.378 -0.34800000000000003Q5.94 -0.8280000000000001 5.94 -1.956Q5.94 -2.7960000000000003 6.156000000000001 -3.552Q6.372000000000001 -4.308 6.8100000000000005 -4.890000000000001Q7.248 -5.472 7.908000000000001 -5.8020000000000005Q8.568000000000001 -6.132000000000001 9.444 -6.132000000000001ZM9.072000000000001 -5.7Q8.532 -5.7 8.13 -5.4Q7.728000000000001 -5.1000000000000005 7.464 -4.59Q7.2 -4.08 7.074 -3.45Q6.948 -2.82 6.948 -2.16Q6.948 -1.3920000000000001 7.1160000000000005 -0.8940000000000001Q7.284000000000001 -0.396 7.728000000000001 -0.396Q8.052 -0.396 8.382 -0.72Q8.712 -1.044 9.0 -1.59Q9.288 -2.136 9.516 -2.814Q9.744 -3.492 9.876000000000001 -4.2Q10.008000000000001 -4.908 10.008000000000001 -5.556Q9.828 -5.628 9.588000000000001 -5.664Q9.348 -5.7 9.072000000000001 -5.7Z M14.352 0.132Q13.872000000000002 0.132 13.428 -0.018000000000000002Q12.984000000000002 -0.168 12.708000000000002 -0.456Q12.432 -0.744 12.432 -1.1520000000000001Q12.432 -1.416 12.582 -1.5779999999999998Q12.732000000000001 -1.74 12.948 -1.74Q13.188 -1.74 13.314 -1.584Q13.440000000000001 -1.428 13.440000000000001 -1.236Q13.440000000000001 -1.1520000000000001 13.416 -1.056Q13.392000000000001 -0.96 13.332 -0.864Q13.428 -0.6 13.716000000000001 -0.45599999999999996Q14.004000000000001 -0.312 14.328000000000001 -0.312Q14.976 -0.312 15.3 -0.612Q15.624 -0.912 15.624 -1.452Q15.624 -1.776 15.396 -2.028Q15.168000000000001 -2.2800000000000002 14.82 -2.5020000000000002Q14.472000000000001 -2.724 14.100000000000001 -2.94Q13.752 -3.156 13.434000000000001 -3.3840000000000003Q13.116000000000001 -3.612 12.918000000000001 -3.888Q12.72 -4.164 12.72 -4.5120000000000005Q12.72 -4.956 12.984000000000002 -5.322Q13.248000000000001 -5.688 13.716000000000001 -5.91Q14.184000000000001 -6.132000000000001 14.796000000000001 -6.132000000000001Q15.252 -6.132000000000001 15.654 -5.988Q16.056 -5.844 16.314 -5.58Q16.572000000000003 -5.316 16.572000000000003 -4.956Q16.572000000000003 -4.704 16.428 -4.554Q16.284 -4.404 16.068 -4.404Q15.852 -4.404 15.72 -4.548Q15.588000000000001 -4.692 15.588000000000001 -4.884Q15.588000000000001 -4.98 15.612000000000002 -5.07Q15.636000000000001 -5.16 15.696000000000002 -5.256Q15.636000000000001 -5.46 15.402000000000001 -5.598Q15.168000000000001 -5.736 14.760000000000002 -5.736Q14.496 -5.736 14.244 -5.616Q13.992 -5.496 13.824000000000002 -5.2860000000000005Q13.656 -5.0760000000000005 13.656 -4.788Q13.656 -4.5600000000000005 13.794 -4.368Q13.932 -4.176 14.16 -4.008Q14.388000000000002 -3.84 14.652000000000001 -3.672Q15.084000000000001 -3.42 15.540000000000001 -3.138Q15.996 -2.856 16.302 -2.496Q16.608 -2.136 16.608 -1.62Q16.608 -1.116 16.326 -0.7200000000000001Q16.044 -0.324 15.534 -0.096Q15.024000000000001 0.132 14.352 0.132Z M19.488000000000003 0.132Q19.008000000000003 0.132 18.564 -0.018000000000000002Q18.12 -0.168 17.844 -0.456Q17.568 -0.744 17.568 -1.1520000000000001Q17.568 -1.416 17.718000000000004 -1.5779999999999998Q17.868000000000002 -1.74 18.084000000000003 -1.74Q18.324 -1.74 18.450000000000003 -1.584Q18.576 -1.428 18.576 -1.236Q18.576 -1.1520000000000001 18.552 -1.056Q18.528000000000002 -0.96 18.468000000000004 -0.864Q18.564000000000004 -0.6 18.852000000000004 -0.45599999999999996Q19.14 -0.312 19.464000000000002 -0.312Q20.112000000000002 -0.312 20.436 -0.612Q20.76 -0.912 20.76 -1.452Q20.76 -1.776 20.532000000000004 -2.028Q20.304000000000002 -2.2800000000000002 19.956000000000003 -2.5020000000000002Q19.608 -2.724 19.236 -2.94Q18.888 -3.156 18.57 -3.3840000000000003Q18.252000000000002 -3.612 18.054000000000002 -3.888Q17.856 -4.164 17.856 -4.5120000000000005Q17.856 -4.956 18.12 -5.322Q18.384 -5.688 18.852 -5.91Q19.32 -6.132000000000001 19.932000000000002 -6.132000000000001Q20.388 -6.132000000000001 20.79 -5.988Q21.192 -5.844 21.450000000000003 -5.58Q21.708000000000002 -5.316 21.708000000000002 -4.956Q21.708000000000002 -4.704 21.564 -4.554Q21.42 -4.404 21.204 -4.404Q20.988000000000003 -4.404 20.856 -4.548Q20.724000000000004 -4.692 20.724000000000004 -4.884Q20.724000000000004 -4.98 20.748000000000005 -5.07Q20.772000000000002 -5.16 20.832 -5.256Q20.772000000000002 -5.46 20.538000000000004 -5.598Q20.304000000000002 -5.736 19.896 -5.736Q19.632 -5.736 19.380000000000003 -5.616Q19.128 -5.496 18.96 -5.2860000000000005Q18.792 -5.0760000000000005 18.792 -4.788Q18.792 -4.5600000000000005 18.93 -4.368Q19.068 -4.176 19.296 -4.008Q19.524 -3.84 19.788000000000004 -3.672Q20.220000000000002 -3.42 20.676000000000002 -3.138Q21.132 -2.856 21.438000000000002 -2.496Q21.744000000000003 -2.136 21.744000000000003 -1.62Q21.744000000000003 -1.116 21.462000000000003 -0.7200000000000001Q21.180000000000003 -0.324 20.67 -0.096Q20.160000000000004 0.132 19.488000000000003 0.132Z M23.94 -6.132000000000001Q24.444000000000003 -6.132000000000001 24.696 -5.790000000000001Q24.948 -5.448 24.948 -4.884Q24.948 -4.524 24.882 -4.062Q24.816000000000003 -3.6 24.720000000000002 -3.072Q24.624000000000002 -2.544 24.558 -2.01Q24.492 -1.476 24.492 -0.972Q24.492 -0.732 24.582 -0.6Q24.672 -0.468 24.864 -0.468Q25.068 -0.468 25.314 -0.732Q25.560000000000002 -0.996 25.740000000000002 -1.6320000000000001L26.076 -1.56Q26.028000000000002 -1.308 25.914 -1.014Q25.8 -0.72 25.62 -0.46199999999999997Q25.44 -0.20400000000000001 25.182000000000002 -0.036000000000000004Q24.924 0.132 24.588 0.132Q24.036 0.132 23.772000000000002 -0.156Q23.508000000000003 -0.444 23.508000000000003 -0.996Q23.508000000000003 -1.524 23.580000000000002 -2.0220000000000002Q23.652 -2.52 23.742 -3.0060000000000002Q23.832 -3.492 23.904000000000003 -3.984Q23.976000000000003 -4.476 23.976000000000003 -4.992Q23.976000000000003 -5.148 23.910000000000004 -5.34Q23.844 -5.532 23.64 -5.532Q23.448 -5.532 23.196 -5.268000000000001Q22.944000000000003 -5.0040000000000004 22.764000000000003 -4.368L22.428 -4.44Q22.464000000000002 -4.656 22.572000000000003 -4.938Q22.68 -5.22 22.866 -5.496Q23.052 -5.772 23.316000000000003 -5.952Q23.580000000000002 -6.132000000000001 23.94 -6.132000000000001ZM24.624000000000002 -8.724Q24.900000000000002 -8.724 25.080000000000002 -8.538Q25.26 -8.352 25.26 -8.040000000000001Q25.26 -7.74 25.068 -7.554Q24.876 -7.368 24.612000000000002 -7.368Q24.348000000000003 -7.368 24.162000000000003 -7.554Q23.976000000000003 -7.74 23.976000000000003 -8.040000000000001Q23.976000000000003 -8.352 24.168000000000003 -8.538Q24.360000000000003 -8.724 24.624000000000002 -8.724Z M28.512 0.132Q28.032 0.132 27.588 -0.018000000000000002Q27.144 -0.168 26.868 -0.456Q26.592 -0.744 26.592 -1.1520000000000001Q26.592 -1.416 26.741999999999997 -1.5779999999999998Q26.892 -1.74 27.108 -1.74Q27.348 -1.74 27.473999999999997 -1.584Q27.599999999999998 -1.428 27.599999999999998 -1.236Q27.599999999999998 -1.1520000000000001 27.576 -1.056Q27.552 -0.96 27.492 -0.864Q27.588 -0.6 27.875999999999998 -0.45599999999999996Q28.163999999999998 -0.312 28.488 -0.312Q29.136 -0.312 29.46 -0.612Q29.784 -0.912 29.784 -1.452Q29.784 -1.776 29.555999999999997 -2.028Q29.328 -2.2800000000000002 28.979999999999997 -2.5020000000000002Q28.631999999999998 -2.724 28.259999999999998 -2.94Q27.912 -3.156 27.594 -3.3840000000000003Q27.276 -3.612 27.078 -3.888Q26.88 -4.164 26.88 -4.5120000000000005Q26.88 -4.956 27.144 -5.322Q27.407999999999998 -5.688 27.875999999999998 -5.91Q28.344 -6.132000000000001 28.956 -6.132000000000001Q29.412 -6.132000000000001 29.814 -5.988Q30.216 -5.844 30.474 -5.58Q30.732 -5.316 30.732 -4.956Q30.732 -4.704 30.588 -4.554Q30.444 -4.404 30.227999999999998 -4.404Q30.012 -4.404 29.88 -4.548Q29.747999999999998 -4.692 29.747999999999998 -4.884Q29.747999999999998 -4.98 29.772 -5.07Q29.796 -5.16 29.855999999999998 -5.256Q29.796 -5.46 29.561999999999998 -5.598Q29.328 -5.736 28.919999999999998 -5.736Q28.656 -5.736 28.404 -5.616Q28.152 -5.496 27.984 -5.2860000000000005Q27.816 -5.0760000000000005 27.816 -4.788Q27.816 -4.5600000000000005 27.954 -4.368Q28.092 -4.176 28.32 -4.008Q28.548 -3.84 28.811999999999998 -3.672Q29.244 -3.42 29.7 -3.138Q30.156 -2.856 30.462 -2.496Q30.768 -2.136 30.768 -1.62Q30.768 -1.116 30.486 -0.7200000000000001Q30.204 -0.324 29.694 -0.096Q29.183999999999997 0.132 28.512 0.132Z M33.972 -7.692 33.756 -6.0H35.664L35.628 -5.5440000000000005L33.708 -5.5200000000000005Q33.660000000000004 -5.016 33.59400000000001 -4.482Q33.528000000000006 -3.948 33.480000000000004 -3.42Q33.432 -2.892 33.396 -2.4059999999999997Q33.36 -1.92 33.36 -1.524Q33.36 -1.296 33.39 -1.05Q33.42 -0.804 33.540000000000006 -0.642Q33.660000000000004 -0.48 33.924 -0.48Q34.044000000000004 -0.48 34.218 -0.528Q34.392 -0.5760000000000001 34.608000000000004 -0.756Q34.824000000000005 -0.936 35.052 -1.32L35.364000000000004 -1.116Q35.016000000000005 -0.504 34.614000000000004 -0.186Q34.212 0.132 33.636 0.132Q33.168 0.132 32.897999999999996 -0.066Q32.628 -0.264 32.508 -0.5880000000000001Q32.388000000000005 -0.912 32.388000000000005 -1.284Q32.388000000000005 -1.74 32.42400000000001 -2.394Q32.46 -3.048 32.532 -3.846Q32.604 -4.644 32.7 -5.508L31.632 -5.496L31.668000000000003 -6.0Q32.496 -6.0 32.892 -6.444Q33.288000000000004 -6.888 33.516000000000005 -7.692Z M39.120000000000005 -6.132000000000001Q39.55200000000001 -6.132000000000001 39.93600000000001 -6.0Q40.32000000000001 -5.868 40.56 -5.568Q40.800000000000004 -5.268 40.800000000000004 -4.752Q40.800000000000004 -4.26 40.464000000000006 -3.9Q40.12800000000001 -3.54 39.58800000000001 -3.306Q39.048 -3.072 38.43600000000001 -2.928Q37.824000000000005 -2.7840000000000003 37.260000000000005 -2.724Q37.260000000000005 -1.98 37.410000000000004 -1.476Q37.56 -0.972 37.86 -0.72Q38.160000000000004 -0.468 38.62800000000001 -0.468Q38.976000000000006 -0.468 39.330000000000005 -0.624Q39.684000000000005 -0.78 40.00800000000001 -1.0979999999999999Q40.33200000000001 -1.416 40.596000000000004 -1.92L40.992000000000004 -1.692Q40.656000000000006 -1.068 40.272000000000006 -0.66Q39.888000000000005 -0.252 39.432 -0.06Q38.976000000000006 0.132 38.42400000000001 0.132Q37.284000000000006 0.132 36.74400000000001 -0.5820000000000001Q36.20400000000001 -1.296 36.20400000000001 -2.46Q36.20400000000001 -3.156 36.38400000000001 -3.816Q36.56400000000001 -4.476 36.92400000000001 -4.998Q37.284000000000006 -5.5200000000000005 37.836000000000006 -5.8260000000000005Q38.388000000000005 -6.132000000000001 39.120000000000005 -6.132000000000001ZM38.952000000000005 -5.724Q38.400000000000006 -5.724 38.04600000000001 -5.352Q37.69200000000001 -4.98 37.50600000000001 -4.392Q37.32000000000001 -3.8040000000000003 37.272000000000006 -3.156Q37.908 -3.24 38.484 -3.4560000000000004Q39.06 -3.672 39.432 -4.014Q39.804 -4.356 39.804 -4.812Q39.804 -5.196 39.59400000000001 -5.46Q39.38400000000001 -5.724 38.952000000000005 -5.724Z M47.136 0.132Q46.572 0.132 46.368 -0.168Q46.164 -0.468 46.164 -1.02Q46.164 -1.356 46.218 -1.8120000000000003Q46.272 -2.2680000000000002 46.349999999999994 -2.7840000000000003Q46.428 -3.3000000000000003 46.482 -3.8280000000000003Q46.536 -4.356 46.536 -4.836Q46.536 -4.98 46.494 -5.148Q46.452 -5.316 46.332 -5.442Q46.212 -5.5680000000000005 45.972 -5.5680000000000005Q45.636 -5.5680000000000005 45.3 -5.256Q44.964 -4.944 44.664 -4.416Q44.364000000000004 -3.888 44.124 -3.246Q43.884 -2.604 43.746 -1.9260000000000002Q43.608000000000004 -1.248 43.608000000000004 -0.636Q43.608000000000004 -0.456 43.614000000000004 -0.306Q43.620000000000005 -0.156 43.632 0.0H42.624Q42.612 -0.084 42.612 -0.15Q42.612 -0.216 42.612 -0.312Q42.612 -0.516 42.636 -0.786Q42.660000000000004 -1.056 42.714 -1.506Q42.768 -1.956 42.852000000000004 -2.712Q42.936 -3.42 42.978 -3.816Q43.02 -4.212 43.044 -4.422Q43.068 -4.632 43.074 -4.746Q43.08 -4.86 43.08 -4.992Q43.08 -5.208 43.019999999999996 -5.37Q42.96 -5.532 42.756 -5.532Q42.564 -5.532 42.312 -5.268000000000001Q42.06 -5.0040000000000004 41.88 -4.368L41.544000000000004 -4.44Q41.58 -4.656 41.694 -4.938Q41.808 -5.22 42.0 -5.496Q42.192 -5.772 42.468 -5.952Q42.744 -6.132000000000001 43.104 -6.132000000000001Q43.512 -6.132000000000001 43.71 -5.91Q43.908 -5.688 43.962 -5.34Q44.016 -4.992 43.992000000000004 -4.596Q43.968 -4.26 43.914 -3.948Q43.86 -3.636 43.812 -3.396H43.848Q44.256 -4.488 44.652 -5.082000000000001Q45.048 -5.676 45.438 -5.904Q45.828 -6.132000000000001 46.212 -6.132000000000001Q46.692 -6.132000000000001 46.980000000000004 -5.916Q47.268 -5.7 47.394000000000005 -5.346Q47.52 -4.992 47.52 -4.572Q47.52 -3.912 47.43000000000001 -3.222Q47.34 -2.532 47.25 -1.9500000000000002Q47.160000000000004 -1.368 47.160000000000004 -1.02Q47.160000000000004 -0.804 47.214 -0.636Q47.268 -0.468 47.484 -0.468Q47.688 -0.468 47.934 -0.726Q48.18 -0.984 48.36 -1.6320000000000001L48.696 -1.548Q48.660000000000004 -1.344 48.54600000000001 -1.056Q48.432 -0.768 48.24 -0.498Q48.048 -0.228 47.772000000000006 -0.048Q47.496 0.132 47.136 0.132Z M51.444 -7.692 51.228 -6.0H53.136L53.1 -5.5440000000000005L51.18000000000001 -5.5200000000000005Q51.132000000000005 -5.016 51.066 -4.482Q51.0 -3.948 50.952 -3.42Q50.904 -2.892 50.868 -2.4059999999999997Q50.832 -1.92 50.832 -1.524Q50.832 -1.296 50.862 -1.05Q50.892 -0.804 51.012 -0.642Q51.132000000000005 -0.48 51.396 -0.48Q51.516000000000005 -0.48 51.690000000000005 -0.528Q51.864000000000004 -0.5760000000000001 52.080000000000005 -0.756Q52.29600000000001 -0.936 52.524 -1.32L52.836000000000006 -1.116Q52.48800000000001 -0.504 52.086000000000006 -0.186Q51.684000000000005 0.132 51.108000000000004 0.132Q50.64 0.132 50.370000000000005 -0.066Q50.1 -0.264 49.980000000000004 -0.5880000000000001Q49.86000000000001 -0.912 49.86000000000001 -1.284Q49.86000000000001 -1.74 49.896 -2.394Q49.932 -3.048 50.004000000000005 -3.846Q50.076 -4.644 50.172000000000004 -5.508L49.104000000000006 -5.496L49.14 -6.0Q49.968 -6.0 50.364000000000004 -6.444Q50.760000000000005 -6.888 50.98800000000001 -7.692Z M56.592 -6.132000000000001Q57.024 -6.132000000000001 57.408 -6.0Q57.792 -5.868 58.032 -5.568Q58.272 -5.268 58.272 -4.752Q58.272 -4.26 57.936 -3.9Q57.6 -3.54 57.06 -3.306Q56.519999999999996 -3.072 55.908 -2.928Q55.296 -2.7840000000000003 54.732 -2.724Q54.732 -1.98 54.882 -1.476Q55.032 -0.972 55.331999999999994 -0.72Q55.632 -0.468 56.1 -0.468Q56.448 -0.468 56.802 -0.624Q57.156 -0.78 57.480000000000004 -1.0979999999999999Q57.804 -1.416 58.068 -1.92L58.464 -1.692Q58.128 -1.068 57.744 -0.66Q57.36 -0.252 56.903999999999996 -0.06Q56.448 0.132 55.896 0.132Q54.756 0.132 54.216 -0.5820000000000001Q53.676 -1.296 53.676 -2.46Q53.676 -3.156 53.856 -3.816Q54.036 -4.476 54.396 -4.998Q54.756 -5.5200000000000005 55.308 -5.8260000000000005Q55.86 -6.132000000000001 56.592 -6.132000000000001ZM56.424 -5.724Q55.872 -5.724 55.518 -5.352Q55.164 -4.98 54.978 -4.392Q54.792 -3.8040000000000003 54.744 -3.156Q55.379999999999995 -3.24 55.955999999999996 -3.4560000000000004Q56.532 -3.672 56.903999999999996 -4.014Q57.275999999999996 -4.356 57.275999999999996 -4.812Q57.275999999999996 -5.196 57.066 -5.46Q56.856 -5.724 56.424 -5.724Z  M62.592 3.06V2.7Q62.928000000000004 2.7 63.066 2.4720000000000004Q63.204 2.244 63.246 1.866Q63.288000000000004 1.488 63.324 1.02Q63.408 -0.012 63.498000000000005 -0.978Q63.588 -1.944 63.666 -2.742Q63.744 -3.54 63.792 -4.104Q63.84 -4.668 63.84 -4.896Q63.84 -5.136 63.798 -5.334Q63.756 -5.532 63.516 -5.532Q63.324 -5.532 63.078 -5.268000000000001Q62.832 -5.0040000000000004 62.652 -4.368L62.304 -4.44Q62.34 -4.656 62.454 -4.938Q62.568 -5.22 62.76 -5.496Q62.952 -5.772 63.227999999999994 -5.952Q63.504 -6.132000000000001 63.864000000000004 -6.132000000000001Q64.404 -6.132000000000001 64.59 -5.7540000000000004Q64.776 -5.376 64.776 -4.872Q64.776 -4.5120000000000005 64.72200000000001 -4.146000000000001Q64.668 -3.7800000000000002 64.608 -3.504H64.644Q64.98 -4.6080000000000005 65.334 -5.172000000000001Q65.688 -5.736 66.06 -5.934Q66.432 -6.132000000000001 66.78 -6.132000000000001Q67.332 -6.132000000000001 67.69200000000001 -5.814Q68.052 -5.496 68.226 -4.968Q68.4 -4.44 68.4 -3.8040000000000003Q68.4 -2.64 67.998 -1.752Q67.596 -0.864 66.81 -0.366Q66.024 0.132 64.86 0.132Q64.70400000000001 0.132 64.566 0.12Q64.428 0.108 64.296 0.096Q64.236 1.008 64.206 1.506Q64.176 2.004 64.158 2.238Q64.14 2.472 64.104 2.604Q64.296 2.592 64.482 2.5860000000000003Q64.668 2.58 64.86 2.568V3.06ZM65.06400000000001 -0.276Q65.568 -0.276 65.952 -0.48000000000000004Q66.336 -0.684 66.606 -1.026Q66.876 -1.368 67.04400000000001 -1.8000000000000003Q67.212 -2.232 67.28999999999999 -2.694Q67.368 -3.156 67.368 -3.588Q67.368 -4.14 67.29599999999999 -4.59Q67.224 -5.04 67.04400000000001 -5.304Q66.864 -5.5680000000000005 66.528 -5.5680000000000005Q66.20400000000001 -5.5680000000000005 65.88 -5.220000000000001Q65.556 -4.872 65.28 -4.29Q65.004 -3.708 64.78800000000001 -3.0Q64.572 -2.2920000000000003 64.464 -1.56Q64.416 -1.296 64.386 -1.014Q64.356 -0.732 64.33200000000001 -0.42Q64.524 -0.36 64.69800000000001 -0.318Q64.872 -0.276 65.06400000000001 -0.276Z M72.324 -6.132000000000001Q72.756 -6.132000000000001 73.14 -6.0Q73.524 -5.868 73.764 -5.568Q74.00399999999999 -5.268 74.00399999999999 -4.752Q74.00399999999999 -4.26 73.66799999999999 -3.9Q73.332 -3.54 72.792 -3.306Q72.252 -3.072 71.63999999999999 -2.928Q71.02799999999999 -2.7840000000000003 70.464 -2.724Q70.464 -1.98 70.614 -1.476Q70.764 -0.972 71.064 -0.72Q71.364 -0.468 71.832 -0.468Q72.17999999999999 -0.468 72.53399999999999 -0.624Q72.88799999999999 -0.78 73.21199999999999 -1.0979999999999999Q73.536 -1.416 73.8 -1.92L74.196 -1.692Q73.86 -1.068 73.476 -0.66Q73.092 -0.252 72.636 -0.06Q72.17999999999999 0.132 71.628 0.132Q70.488 0.132 69.94800000000001 -0.5820000000000001Q69.408 -1.296 69.408 -2.46Q69.408 -3.156 69.588 -3.816Q69.768 -4.476 70.128 -4.998Q70.488 -5.5200000000000005 71.03999999999999 -5.8260000000000005Q71.592 -6.132000000000001 72.324 -6.132000000000001ZM72.15599999999999 -5.724Q71.604 -5.724 71.25 -5.352Q70.896 -4.98 70.71000000000001 -4.392Q70.524 -3.8040000000000003 70.476 -3.156Q71.112 -3.24 71.68799999999999 -3.4560000000000004Q72.264 -3.672 72.636 -4.014Q73.008 -4.356 73.008 -4.812Q73.008 -5.196 72.798 -5.46Q72.588 -5.724 72.15599999999999 -5.724Z M75.876 0.0Q75.864 -0.084 75.864 -0.15Q75.864 -0.216 75.864 -0.312Q75.864 -0.516 75.876 -0.798Q75.888 -1.08 75.93 -1.548Q75.97200000000001 -2.016 76.056 -2.7720000000000002Q76.14 -3.552 76.188 -3.9480000000000004Q76.236 -4.344 76.26 -4.53Q76.284 -4.716 76.284 -4.836Q76.296 -5.0760000000000005 76.254 -5.304Q76.212 -5.532 75.96000000000001 -5.532Q75.768 -5.532 75.51599999999999 -5.268000000000001Q75.264 -5.0040000000000004 75.084 -4.368L74.748 -4.44Q74.784 -4.656 74.898 -4.938Q75.012 -5.22 75.20400000000001 -5.496Q75.396 -5.772 75.672 -5.952Q75.94800000000001 -6.132000000000001 76.308 -6.132000000000001Q76.848 -6.132000000000001 77.02799999999999 -5.76Q77.208 -5.388 77.184 -4.764Q77.172 -4.5 77.118 -4.182Q77.06400000000001 -3.864 77.004 -3.516H77.04Q77.388 -4.5600000000000005 77.766 -5.1240000000000006Q78.144 -5.688 78.534 -5.91Q78.924 -6.132000000000001 79.308 -6.132000000000001Q79.668 -6.132000000000001 79.908 -5.946Q80.148 -5.76 80.148 -5.436Q80.148 -5.22 79.99799999999999 -5.04Q79.848 -4.86 79.596 -4.86Q79.38 -4.86 79.22399999999999 -4.992Q79.068 -5.124 79.044 -5.364Q78.708 -5.436 78.39 -5.148Q78.072 -4.86 77.78999999999999 -4.3260000000000005Q77.508 -3.7920000000000003 77.298 -3.132Q77.08800000000001 -2.472 76.968 -1.788Q76.848 -1.104 76.848 -0.516Q76.848 -0.336 76.854 -0.246Q76.86 -0.156 76.872 0.0Z  M85.848 -9.06Q85.812 -8.76 85.74600000000001 -8.388Q85.68 -8.016 85.626 -7.656000000000001Q85.572 -7.296 85.536 -7.0200000000000005Q85.464 -6.516 85.392 -5.8740000000000006Q85.32000000000001 -5.232 85.248 -4.542Q85.176 -3.852 85.122 -3.192Q85.068 -2.532 85.032 -1.986Q84.996 -1.44 84.996 -1.092Q84.996 -0.864 85.044 -0.666Q85.092 -0.468 85.32000000000001 -0.468Q85.524 -0.468 85.77000000000001 -0.726Q86.016 -0.984 86.196 -1.6320000000000001L86.532 -1.548Q86.496 -1.344 86.382 -1.056Q86.268 -0.768 86.076 -0.498Q85.884 -0.228 85.614 -0.048Q85.344 0.132 84.984 0.132Q84.492 0.132 84.26400000000001 -0.11399999999999999Q84.036 -0.36 84.024 -0.84Q84.012 -1.1400000000000001 84.054 -1.728Q84.096 -2.316 84.162 -3.066Q84.228 -3.8160000000000003 84.312 -4.638Q84.396 -5.46 84.492 -6.24Q84.58800000000001 -7.0200000000000005 84.672 -7.656000000000001Q84.732 -7.98 84.75 -8.082Q84.768 -8.184000000000001 84.78 -8.304Q84.56400000000001 -8.292 84.35400000000001 -8.280000000000001Q84.144 -8.268 83.928 -8.256L83.988 -8.736Q84.516 -8.736 84.81 -8.784Q85.104 -8.832 85.25999999999999 -8.904Q85.416 -8.976 85.512 -9.06Z M88.69200000000001 -8.592 88.428 -5.892H87.624L87.684 -8.592Z M92.72399999999999 -6.132000000000001Q93.084 -6.132000000000001 93.51599999999999 -6.078Q93.948 -6.024 94.332 -5.928Q94.23599999999999 -5.208 94.14599999999999 -4.494Q94.056 -3.7800000000000002 93.978 -3.138Q93.89999999999999 -2.496 93.852 -1.986Q93.804 -1.476 93.804 -1.188Q93.804 -0.9480000000000001 93.84 -0.7080000000000001Q93.87599999999999 -0.468 94.14 -0.468Q94.344 -0.468 94.59 -0.732Q94.836 -0.996 95.01599999999999 -1.6320000000000001L95.352 -1.56Q95.316 -1.344 95.202 -1.062Q95.088 -0.78 94.89599999999999 -0.504Q94.704 -0.228 94.428 -0.048Q94.152 0.132 93.792 0.132Q93.312 0.132 93.108 -0.168Q92.904 -0.468 92.904 -0.9480000000000001Q92.904 -1.296 92.97 -1.7040000000000002Q93.036 -2.112 93.11999999999999 -2.556H93.084Q92.79599999999999 -1.668 92.49 -1.134Q92.184 -0.6 91.878 -0.324Q91.572 -0.048 91.28399999999999 0.042Q90.996 0.132 90.744 0.132Q90.09599999999999 0.132 89.65799999999999 -0.34800000000000003Q89.22 -0.8280000000000001 89.22 -1.956Q89.22 -2.7960000000000003 89.436 -3.552Q89.652 -4.308 90.09 -4.890000000000001Q90.52799999999999 -5.472 91.18799999999999 -5.8020000000000005Q91.848 -6.132000000000001 92.72399999999999 -6.132000000000001ZM92.35199999999999 -5.7Q91.812 -5.7 91.41 -5.4Q91.008 -5.1000000000000005 90.744 -4.59Q90.47999999999999 -4.08 90.35399999999998 -3.45Q90.228 -2.82 90.228 -2.16Q90.228 -1.3920000000000001 90.39599999999999 -0.8940000000000001Q90.564 -0.396 91.008 -0.396Q91.332 -0.396 91.66199999999999 -0.72Q91.99199999999999 -1.044 92.28 -1.59Q92.568 -2.136 92.79599999999999 -2.814Q93.024 -3.492 93.156 -4.2Q93.288 -4.908 93.288 -5.556Q93.10799999999999 -5.628 92.868 -5.664Q92.628 -5.7 92.35199999999999 -5.7Z M96.56400000000001 0.0Q96.552 -0.084 96.552 -0.15Q96.552 -0.216 96.552 -0.312Q96.552 -0.516 96.56400000000001 -0.798Q96.57600000000001 -1.08 96.61800000000001 -1.548Q96.66000000000001 -2.016 96.744 -2.7720000000000002Q96.828 -3.552 96.876 -3.9480000000000004Q96.924 -4.344 96.94800000000001 -4.53Q96.97200000000001 -4.716 96.97200000000001 -4.836Q96.98400000000001 -5.0760000000000005 96.94200000000001 -5.304Q96.9 -5.532 96.64800000000001 -5.532Q96.456 -5.532 96.20400000000001 -5.268000000000001Q95.952 -5.0040000000000004 95.772 -4.368L95.436 -4.44Q95.47200000000001 -4.656 95.58600000000001 -4.938Q95.7 -5.22 95.892 -5.496Q96.084 -5.772 96.36000000000001 -5.952Q96.63600000000001 -6.132000000000001 96.99600000000001 -6.132000000000001Q97.536 -6.132000000000001 97.71600000000001 -5.76Q97.896 -5.388 97.872 -4.764Q97.86 -4.5 97.80600000000001 -4.182Q97.75200000000001 -3.864 97.69200000000001 -3.516H97.72800000000001Q98.07600000000001 -4.5600000000000005 98.45400000000001 -5.1240000000000006Q98.83200000000001 -5.688 99.22200000000001 -5.91Q99.61200000000001 -6.132000000000001 99.99600000000001 -6.132000000000001Q100.35600000000001 -6.132000000000001 100.596 -5.946Q100.836 -5.76 100.836 -5.436Q100.836 -5.22 100.686 -5.04Q100.536 -4.86 100.284 -4.86Q100.068 -4.86 99.912 -4.992Q99.756 -5.124 99.732 -5.364Q99.396 -5.436 99.078 -5.148Q98.76 -4.86 98.47800000000001 -4.3260000000000005Q98.196 -3.7920000000000003 97.986 -3.132Q97.77600000000001 -2.472 97.656 -1.788Q97.536 -1.104 97.536 -0.516Q97.536 -0.336 97.542 -0.246Q97.548 -0.156 97.56 0.0Z M103.416 -7.692 103.2 -6.0H105.108L105.072 -5.5440000000000005L103.152 -5.5200000000000005Q103.104 -5.016 103.038 -4.482Q102.972 -3.948 102.924 -3.42Q102.876 -2.892 102.84 -2.4059999999999997Q102.804 -1.92 102.804 -1.524Q102.804 -1.296 102.834 -1.05Q102.864 -0.804 102.98400000000001 -0.642Q103.104 -0.48 103.368 -0.48Q103.488 -0.48 103.662 -0.528Q103.836 -0.5760000000000001 104.05199999999999 -0.756Q104.268 -0.936 104.496 -1.32L104.80799999999999 -1.116Q104.46 -0.504 104.05799999999999 -0.186Q103.65599999999999 0.132 103.08 0.132Q102.612 0.132 102.342 -0.066Q102.072 -0.264 101.952 -0.5880000000000001Q101.832 -0.912 101.832 -1.284Q101.832 -1.74 101.868 -2.394Q101.904 -3.048 101.976 -3.846Q102.048 -4.644 102.14399999999999 -5.508L101.076 -5.496L101.112 -6.0Q101.94 -6.0 102.336 -6.444Q102.732 -6.888 102.96 -7.692Z M106.77600000000001 -6.132000000000001Q107.28 -6.132000000000001 107.53200000000001 -5.790000000000001Q107.784 -5.448 107.784 -4.884Q107.784 -4.524 107.718 -4.062Q107.652 -3.6 107.55600000000001 -3.072Q107.46000000000001 -2.544 107.394 -2.01Q107.328 -1.476 107.328 -0.972Q107.328 -0.732 107.418 -0.6Q107.50800000000001 -0.468 107.7 -0.468Q107.90400000000001 -0.468 108.15 -0.732Q108.396 -0.996 108.57600000000001 -1.6320000000000001L108.912 -1.56Q108.864 -1.308 108.75 -1.014Q108.63600000000001 -0.72 108.45600000000002 -0.46199999999999997Q108.27600000000001 -0.20400000000000001 108.018 -0.036000000000000004Q107.76 0.132 107.424 0.132Q106.872 0.132 106.608 -0.156Q106.34400000000001 -0.444 106.34400000000001 -0.996Q106.34400000000001 -1.524 106.41600000000001 -2.0220000000000002Q106.48800000000001 -2.52 106.578 -3.0060000000000002Q106.668 -3.492 106.74000000000001 -3.984Q106.81200000000001 -4.476 106.81200000000001 -4.992Q106.81200000000001 -5.148 106.74600000000001 -5.34Q106.68 -5.532 106.47600000000001 -5.532Q106.284 -5.532 106.03200000000001 -5.268000000000001Q105.78 -5.0040000000000004 105.60000000000001 -4.368L105.26400000000001 -4.44Q105.30000000000001 -4.656 105.40800000000002 -4.938Q105.516 -5.22 105.702 -5.496Q105.888 -5.772 106.15200000000002 -5.952Q106.41600000000001 -6.132000000000001 106.77600000000001 -6.132000000000001ZM107.46 -8.724Q107.736 -8.724 107.916 -8.538Q108.096 -8.352 108.096 -8.040000000000001Q108.096 -7.74 107.904 -7.554Q107.712 -7.368 107.448 -7.368Q107.184 -7.368 106.99799999999999 -7.554Q106.812 -7.74 106.812 -8.040000000000001Q106.812 -8.352 107.00399999999999 -8.538Q107.196 -8.724 107.46 -8.724Z M111.012 3.2520000000000002Q110.79599999999999 3.2520000000000002 110.502 3.204Q110.208 3.156 109.92 3.042Q109.632 2.928 109.44 2.73Q109.248 2.532 109.236 2.244Q109.236 2.076 109.30799999999999 1.9380000000000002Q109.38 1.8 109.512 1.7160000000000002Q109.64399999999999 1.6320000000000001 109.8 1.6320000000000001Q110.01599999999999 1.6320000000000001 110.178 1.77Q110.34 1.9080000000000001 110.34 2.184Q110.34 2.328 110.268 2.496Q110.38799999999999 2.676 110.63399999999999 2.754Q110.88 2.832 111.096 2.832Q111.78 2.832 112.182 2.472Q112.584 2.112 112.8 1.518Q113.01599999999999 0.924 113.112 0.228Q113.22 -0.48 113.268 -1.218Q113.316 -1.956 113.39999999999999 -2.556H113.364Q113.112 -1.692 112.836 -1.158Q112.56 -0.624 112.27199999999999 -0.34199999999999997Q111.984 -0.06 111.702 0.036000000000000004Q111.42 0.132 111.14399999999999 0.132Q110.592 0.132 110.232 -0.174Q109.872 -0.48 109.69800000000001 -1.008Q109.524 -1.536 109.524 -2.196Q109.524 -2.976 109.73400000000001 -3.678Q109.944 -4.38 110.37 -4.938000000000001Q110.79599999999999 -5.496 111.46199999999999 -5.814Q112.128 -6.132000000000001 113.02799999999999 -6.132000000000001Q113.43599999999999 -6.132000000000001 113.85 -6.078Q114.264 -6.024 114.55199999999999 -5.928Q114.50399999999999 -5.208 114.44999999999999 -4.464Q114.396 -3.72 114.33 -2.9880000000000004Q114.264 -2.2560000000000002 114.20400000000001 -1.548Q114.144 -0.84 114.084 -0.168Q113.988 0.996 113.598 1.752Q113.208 2.508 112.554 2.88Q111.89999999999999 3.2520000000000002 111.012 3.2520000000000002ZM111.396 -0.432Q111.732 -0.432 112.05 -0.762Q112.368 -1.092 112.638 -1.6380000000000001Q112.908 -2.184 113.118 -2.856Q113.328 -3.528 113.46000000000001 -4.23Q113.592 -4.932 113.628 -5.5440000000000005Q113.472 -5.628 113.262 -5.664Q113.05199999999999 -5.7 112.836 -5.7Q112.176 -5.7 111.732 -5.382Q111.288 -5.064 111.024 -4.554Q110.75999999999999 -4.0440000000000005 110.64599999999999 -3.474Q110.532 -2.904 110.532 -2.4Q110.532 -1.848 110.61 -1.404Q110.688 -0.96 110.88 -0.696Q111.072 -0.432 111.396 -0.432Z M116.88000000000001 -6.132000000000001Q117.384 -6.132000000000001 117.636 -5.790000000000001Q117.888 -5.448 117.888 -4.884Q117.888 -4.524 117.822 -4.062Q117.756 -3.6 117.66 -3.072Q117.56400000000001 -2.544 117.498 -2.01Q117.432 -1.476 117.432 -0.972Q117.432 -0.732 117.522 -0.6Q117.61200000000001 -0.468 117.804 -0.468Q118.00800000000001 -0.468 118.254 -0.732Q118.5 -0.996 118.68 -1.6320000000000001L119.016 -1.56Q118.968 -1.308 118.85400000000001 -1.014Q118.74000000000001 -0.72 118.56 -0.46199999999999997Q118.38000000000001 -0.20400000000000001 118.12200000000001 -0.036000000000000004Q117.864 0.132 117.528 0.132Q116.976 0.132 116.712 -0.156Q116.44800000000001 -0.444 116.44800000000001 -0.996Q116.44800000000001 -1.524 116.52000000000001 -2.0220000000000002Q116.59200000000001 -2.52 116.68200000000002 -3.0060000000000002Q116.772 -3.492 116.84400000000001 -3.984Q116.91600000000001 -4.476 116.91600000000001 -4.992Q116.91600000000001 -5.148 116.85000000000001 -5.34Q116.784 -5.532 116.58000000000001 -5.532Q116.388 -5.532 116.136 -5.268000000000001Q115.884 -5.0040000000000004 115.70400000000001 -4.368L115.36800000000001 -4.44Q115.40400000000001 -4.656 115.512 -4.938Q115.62 -5.22 115.80600000000001 -5.496Q115.992 -5.772 116.256 -5.952Q116.52000000000001 -6.132000000000001 116.88000000000001 -6.132000000000001ZM117.564 -8.724Q117.84 -8.724 118.02000000000001 -8.538Q118.2 -8.352 118.2 -8.040000000000001Q118.2 -7.74 118.00800000000001 -7.554Q117.816 -7.368 117.55199999999999 -7.368Q117.288 -7.368 117.102 -7.554Q116.916 -7.74 116.916 -8.040000000000001Q116.916 -8.352 117.108 -8.538Q117.3 -8.724 117.564 -8.724Z M123.11999999999999 -6.132000000000001Q123.47999999999999 -6.132000000000001 123.91199999999999 -6.078Q124.344 -6.024 124.728 -5.928Q124.63199999999999 -5.208 124.542 -4.494Q124.452 -3.7800000000000002 124.374 -3.138Q124.29599999999999 -2.496 124.24799999999999 -1.986Q124.2 -1.476 124.2 -1.188Q124.2 -0.9480000000000001 124.23599999999999 -0.7080000000000001Q124.27199999999999 -0.468 124.536 -0.468Q124.74 -0.468 124.98599999999999 -0.732Q125.232 -0.996 125.41199999999999 -1.6320000000000001L125.74799999999999 -1.56Q125.712 -1.344 125.598 -1.062Q125.484 -0.78 125.292 -0.504Q125.1 -0.228 124.824 -0.048Q124.548 0.132 124.188 0.132Q123.708 0.132 123.50399999999999 -0.168Q123.3 -0.468 123.3 -0.9480000000000001Q123.3 -1.296 123.366 -1.7040000000000002Q123.432 -2.112 123.51599999999999 -2.556H123.47999999999999Q123.192 -1.668 122.886 -1.134Q122.58 -0.6 122.274 -0.324Q121.968 -0.048 121.68 0.042Q121.392 0.132 121.14 0.132Q120.49199999999999 0.132 120.054 -0.34800000000000003Q119.616 -0.8280000000000001 119.616 -1.956Q119.616 -2.7960000000000003 119.832 -3.552Q120.048 -4.308 120.48599999999999 -4.890000000000001Q120.92399999999999 -5.472 121.584 -5.8020000000000005Q122.244 -6.132000000000001 123.11999999999999 -6.132000000000001ZM122.74799999999999 -5.7Q122.208 -5.7 121.806 -5.4Q121.404 -5.1000000000000005 121.13999999999999 -4.59Q120.87599999999999 -4.08 120.75 -3.45Q120.624 -2.82 120.624 -2.16Q120.624 -1.3920000000000001 120.792 -0.8940000000000001Q120.96 -0.396 121.404 -0.396Q121.728 -0.396 122.05799999999999 -0.72Q122.38799999999999 -1.044 122.67599999999999 -1.59Q122.964 -2.136 123.19200000000001 -2.814Q123.42 -3.492 123.55199999999999 -4.2Q123.684 -4.908 123.684 -5.556Q123.50399999999999 -5.628 123.264 -5.664Q123.024 -5.7 122.74799999999999 -5.7Z M131.424 0.132Q130.86 0.132 130.656 -0.168Q130.452 -0.468 130.452 -1.02Q130.452 -1.356 130.506 -1.8120000000000003Q130.56 -2.2680000000000002 130.638 -2.7840000000000003Q130.716 -3.3000000000000003 130.77 -3.8280000000000003Q130.824 -4.356 130.824 -4.836Q130.824 -4.98 130.782 -5.148Q130.74 -5.316 130.62 -5.442Q130.5 -5.5680000000000005 130.26 -5.5680000000000005Q129.924 -5.5680000000000005 129.58800000000002 -5.256Q129.252 -4.944 128.952 -4.416Q128.65200000000002 -3.888 128.412 -3.246Q128.172 -2.604 128.034 -1.9260000000000002Q127.896 -1.248 127.896 -0.636Q127.896 -0.456 127.902 -0.306Q127.908 -0.156 127.92 0.0H126.912Q126.9 -0.084 126.9 -0.15Q126.9 -0.216 126.9 -0.312Q126.9 -0.516 126.924 -0.786Q126.94800000000001 -1.056 127.00200000000001 -1.506Q127.05600000000001 -1.956 127.14 -2.712Q127.224 -3.42 127.266 -3.816Q127.308 -4.212 127.33200000000001 -4.422Q127.35600000000001 -4.632 127.36200000000001 -4.746Q127.36800000000001 -4.86 127.36800000000001 -4.992Q127.36800000000001 -5.208 127.308 -5.37Q127.248 -5.532 127.04400000000001 -5.532Q126.852 -5.532 126.6 -5.268000000000001Q126.348 -5.0040000000000004 126.168 -4.368L125.83200000000001 -4.44Q125.86800000000001 -4.656 125.982 -4.938Q126.096 -5.22 126.28800000000001 -5.496Q126.48 -5.772 126.756 -5.952Q127.03200000000001 -6.132000000000001 127.39200000000001 -6.132000000000001Q127.80000000000001 -6.132000000000001 127.998 -5.91Q128.196 -5.688 128.25 -5.34Q128.304 -4.992 128.28 -4.596Q128.256 -4.26 128.202 -3.948Q128.148 -3.636 128.1 -3.396H128.136Q128.544 -4.488 128.94 -5.082000000000001Q129.336 -5.676 129.726 -5.904Q130.116 -6.132000000000001 130.5 -6.132000000000001Q130.98000000000002 -6.132000000000001 131.26800000000003 -5.916Q131.556 -5.7 131.68200000000002 -5.346Q131.808 -4.992 131.808 -4.572Q131.808 -3.912 131.71800000000002 -3.222Q131.62800000000001 -2.532 131.538 -1.9500000000000002Q131.448 -1.368 131.448 -1.02Q131.448 -0.804 131.502 -0.636Q131.556 -0.468 131.772 -0.468Q131.976 -0.468 132.222 -0.726Q132.46800000000002 -0.984 132.648 -1.6320000000000001L132.984 -1.548Q132.948 -1.344 132.834 -1.056Q132.72 -0.768 132.52800000000002 -0.498Q132.336 -0.228 132.06 -0.048Q131.784 0.132 131.424 0.132Z M136.56 -6.132000000000001Q137.20800000000003 -6.132000000000001 137.72400000000002 -5.8260000000000005Q138.24 -5.5200000000000005 138.54000000000002 -4.932Q138.84 -4.344 138.84 -3.504Q138.84 -2.544 138.49200000000002 -1.71Q138.144 -0.876 137.49 -0.372Q136.836 0.132 135.9 0.132Q135.108 0.132 134.598 -0.22799999999999998Q134.08800000000002 -0.588 133.842 -1.2Q133.596 -1.812 133.596 -2.556Q133.596 -3.528 133.95 -4.344Q134.304 -5.16 134.97000000000003 -5.646000000000001Q135.63600000000002 -6.132000000000001 136.56 -6.132000000000001ZM136.38000000000002 -5.688Q135.852 -5.7 135.46800000000002 -5.334Q135.084 -4.968 134.87400000000002 -4.344Q134.66400000000002 -3.72 134.65200000000002 -2.952Q134.64000000000001 -2.544 134.70000000000002 -2.088Q134.76000000000002 -1.6320000000000001 134.91000000000003 -1.236Q135.06 -0.84 135.33 -0.588Q135.60000000000002 -0.336 136.008 -0.324Q136.48800000000003 -0.312 136.824 -0.582Q137.16000000000003 -0.852 137.36400000000003 -1.284Q137.568 -1.716 137.67000000000002 -2.208Q137.77200000000002 -2.7 137.78400000000002 -3.132Q137.79600000000002 -3.552 137.74200000000002 -3.9960000000000004Q137.68800000000002 -4.44 137.532 -4.824Q137.376 -5.208 137.10000000000002 -5.442Q136.824 -5.676 136.38000000000002 -5.688Z" fill="#e63946"/></g>
</svg>
