<svg viewBox="-2.71 -32.32 145.70 66.77" xmlns="http://www.w3.org/2000/svg" role="img" aria-label="Districo">
  <path d="M17.544 -26.622000000000003V-3.74Q17.544 -2.21 18.020000000000003 -1.479Q18.496000000000002 -0.748 19.720000000000002 -0.748V-0.034Q18.666 -0.136 17.612000000000002 -0.136Q16.184 -0.136 14.943000000000001 -0.034Q13.702000000000002 0.068 12.648000000000001 0.34V-22.542Q12.648000000000001 -24.072000000000003 12.189 -24.803000000000004Q11.73 -25.534000000000002 10.472000000000001 -25.534000000000002V-26.248Q11.56 -26.146 12.58 -26.146Q13.974 -26.146 15.232000000000001 -26.265Q16.490000000000002 -26.384 17.544 -26.622000000000003ZM8.874 -18.054000000000002Q10.370000000000001 -18.054000000000002 11.509 -17.561Q12.648000000000001 -17.068 13.294 -15.912L12.886000000000001 -15.538Q12.444 -16.354000000000003 11.713000000000001 -16.711000000000002Q10.982000000000001 -17.068 10.166 -17.068Q8.432 -17.068 7.412000000000001 -15.045000000000002Q6.392 -13.022 6.426 -8.806000000000001Q6.426 -5.916 6.817 -4.199Q7.208 -2.482 7.939 -1.7340000000000002Q8.67 -0.9860000000000001 9.622 -0.9860000000000001Q10.778 -0.9860000000000001 11.696000000000002 -1.9040000000000001Q12.614 -2.822 12.682 -4.386L12.852 -3.196Q12.342 -1.3940000000000001 11.203 -0.4590000000000001Q10.064 0.47600000000000003 8.228 0.47600000000000003Q6.222 0.47600000000000003 4.641 -0.51Q3.06 -1.496 2.176 -3.553Q1.292 -5.61 1.292 -8.874Q1.292 -11.968 2.278 -13.991000000000001Q3.2640000000000002 -16.014000000000003 4.981 -17.034000000000002Q6.698 -18.054000000000002 8.874 -18.054000000000002Z M25.568 -26.35Q26.996000000000002 -26.35 27.829 -25.653000000000002Q28.662000000000003 -24.956000000000003 28.662000000000003 -23.732000000000003Q28.662000000000003 -22.508000000000003 27.829 -21.811Q26.996000000000002 -21.114 25.568 -21.114Q24.14 -21.114 23.307000000000002 -21.811Q22.474 -22.508000000000003 22.474 -23.732000000000003Q22.474 -24.956000000000003 23.307000000000002 -25.653000000000002Q24.14 -26.35 25.568 -26.35ZM28.220000000000002 -17.952V-3.1620000000000004Q28.220000000000002 -1.7340000000000002 28.713 -1.2240000000000002Q29.206000000000003 -0.7140000000000001 30.396 -0.7140000000000001V0.0Q29.784 -0.034 28.492 -0.085Q27.200000000000003 -0.136 25.874000000000002 -0.136Q24.548000000000002 -0.136 23.188000000000002 -0.085Q21.828 -0.034 21.148 0.0V-0.7140000000000001Q22.338 -0.7140000000000001 22.831000000000003 -1.2240000000000002Q23.324 -1.7340000000000002 23.324 -3.1620000000000004V-13.872000000000002Q23.324 -15.402000000000001 22.865000000000002 -16.133000000000003Q22.406000000000002 -16.864 21.148 -16.864V-17.578000000000003Q22.236 -17.476000000000003 23.256 -17.476000000000003Q24.684 -17.476000000000003 25.925 -17.595000000000002Q27.166 -17.714000000000002 28.220000000000002 -17.952Z M48.042 -18.054000000000002Q49.47 -18.054000000000002 50.541 -17.697000000000003Q51.612 -17.34 52.088 -17.0Q53.244 -16.218 53.516 -18.02H54.230000000000004Q54.162 -17.068 54.128 -15.691000000000003Q54.094 -14.314000000000002 54.094 -12.036000000000001H53.38Q53.21 -13.294 52.734 -14.518Q52.258 -15.742 51.357 -16.524Q50.456 -17.306 49.028 -17.306Q48.042 -17.306 47.362 -16.745Q46.682 -16.184 46.682 -15.13Q46.682 -14.110000000000001 47.294 -13.345Q47.906 -12.58 48.875 -11.883Q49.844 -11.186 50.897999999999996 -10.404Q52.02 -9.554 52.938 -8.721Q53.856 -7.888000000000001 54.400000000000006 -6.902000000000001Q54.944 -5.916 54.944 -4.556Q54.944 -3.0260000000000002 54.06 -1.887Q53.176 -0.748 51.731 -0.13599999999999998Q50.286 0.47600000000000003 48.518 0.47600000000000003Q47.498 0.47600000000000003 46.699 0.272Q45.9 0.068 45.322 -0.23800000000000002Q44.88 -0.44200000000000006 44.489000000000004 -0.629Q44.098 -0.8160000000000001 43.758 -0.9520000000000001Q43.418 -1.054 43.163 -0.714Q42.908 -0.374 42.772 0.23800000000000002H42.058Q42.126 -0.8500000000000001 42.16 -2.414Q42.194 -3.978 42.194 -6.562H42.908Q43.112 -4.726 43.656000000000006 -3.315Q44.2 -1.9040000000000001 45.135000000000005 -1.105Q46.07 -0.30600000000000005 47.498 -0.30600000000000005Q48.076 -0.30600000000000005 48.620000000000005 -0.544Q49.164 -0.782 49.521 -1.326Q49.878 -1.87 49.878 -2.72Q49.878 -4.216 48.909 -5.202Q47.94 -6.188000000000001 46.444 -7.344Q45.356 -8.228 44.387 -9.095Q43.418 -9.962000000000002 42.806 -10.999000000000002Q42.194 -12.036000000000001 42.194 -13.362Q42.194 -14.892000000000001 43.010000000000005 -15.946000000000002Q43.826 -17.0 45.169 -17.527Q46.512 -18.054000000000002 48.042 -18.054000000000002Z M63.92000000000001 -23.154V-17.578000000000003H67.932V-16.898H63.92000000000001V-3.1620000000000004Q63.92000000000001 -2.1420000000000003 64.29400000000001 -1.717Q64.668 -1.292 65.41600000000001 -1.292Q66.028 -1.292 66.64000000000001 -1.751Q67.25200000000001 -2.21 67.72800000000001 -3.3320000000000003L68.30600000000001 -3.0260000000000002Q67.762 -1.496 66.65700000000001 -0.51Q65.552 0.47600000000000003 63.648 0.47600000000000003Q62.526 0.47600000000000003 61.676 0.187Q60.82600000000001 -0.10200000000000001 60.248000000000005 -0.68Q59.50000000000001 -1.4280000000000002 59.26200000000001 -2.5330000000000004Q59.02400000000001 -3.6380000000000003 59.02400000000001 -5.406000000000001V-16.898H56.168000000000006V-17.578000000000003H59.02400000000001V-22.066000000000003Q60.452000000000005 -22.066000000000003 61.659000000000006 -22.321Q62.86600000000001 -22.576 63.92000000000001 -23.154Z M80.682 -18.054000000000002Q81.77000000000001 -18.054000000000002 82.45 -17.595000000000002Q83.13 -17.136000000000003 83.453 -16.422000000000004Q83.77600000000001 -15.708000000000002 83.77600000000001 -14.926000000000002Q83.77600000000001 -13.668000000000001 83.04500000000002 -12.869Q82.31400000000001 -12.07 81.124 -12.07Q79.934 -12.07 79.271 -12.665000000000001Q78.608 -13.260000000000002 78.608 -14.246Q78.608 -15.198 79.033 -15.827Q79.458 -16.456 80.104 -16.898Q79.628 -17.034000000000002 79.152 -16.864Q78.506 -16.762 77.928 -16.337Q77.35000000000001 -15.912 76.94200000000001 -15.283000000000001Q76.534 -14.654000000000002 76.296 -13.923000000000002Q76.058 -13.192 76.058 -12.512V-3.5020000000000002Q76.058 -1.87 76.857 -1.292Q77.656 -0.7140000000000001 79.254 -0.7140000000000001V0.0Q78.47200000000001 -0.034 76.976 -0.085Q75.48 -0.136 73.848 -0.136Q72.488 -0.136 71.094 -0.085Q69.7 -0.034 68.986 0.0V-0.7140000000000001Q70.176 -0.7140000000000001 70.66900000000001 -1.2240000000000002Q71.162 -1.7340000000000002 71.162 -3.1620000000000004V-13.872000000000002Q71.162 -15.402000000000001 70.703 -16.133000000000003Q70.244 -16.864 68.986 -16.864V-17.578000000000003Q70.074 -17.476000000000003 71.09400000000001 -17.476000000000003Q72.522 -17.476000000000003 73.763 -17.595000000000002Q75.004 -17.714000000000002 76.058 -17.952V-14.790000000000001Q76.46600000000001 -15.708000000000002 77.14600000000002 -16.456000000000003Q77.82600000000001 -17.204 78.71000000000001 -17.629Q79.59400000000001 -18.054000000000002 80.682 -18.054000000000002Z M91.936 -17.952V-3.1620000000000004Q91.936 -1.7340000000000002 92.429 -1.2240000000000002Q92.922 -0.7140000000000001 94.112 -0.7140000000000001V0.0Q93.5 -0.034 92.208 -0.085Q90.916 -0.136 89.59 -0.136Q88.264 -0.136 86.904 -0.085Q85.544 -0.034 84.864 0.0V-0.7140000000000001Q86.054 -0.7140000000000001 86.547 -1.2240000000000002Q87.04 -1.7340000000000002 87.04 -3.1620000000000004V-13.872000000000002Q87.04 -15.402000000000001 86.581 -16.133000000000003Q86.122 -16.864 84.864 -16.864V-17.578000000000003Q85.952 -17.476000000000003 86.97200000000001 -17.476000000000003Q88.4 -17.476000000000003 89.641 -17.595000000000002Q90.882 -17.714000000000002 91.936 -17.952Z M113.86600000000001 -18.054000000000002Q115.19200000000001 -18.054000000000002 116.29700000000001 -17.765Q117.40200000000002 -17.476000000000003 118.11600000000001 -17.034000000000002Q119.00000000000001 -16.490000000000002 119.49300000000001 -15.691000000000003Q119.986 -14.892000000000001 119.986 -13.838000000000001Q119.986 -12.648000000000001 119.238 -11.883000000000001Q118.49000000000001 -11.118 117.30000000000001 -11.118Q116.11000000000001 -11.118 115.39600000000002 -11.798000000000002Q114.68200000000002 -12.478000000000002 114.68200000000002 -13.634Q114.68200000000002 -14.722000000000001 115.36200000000001 -15.453000000000001Q116.042 -16.184 116.92600000000002 -16.422Q116.65400000000001 -16.762 116.11000000000001 -17.0Q115.566 -17.238 114.88600000000001 -17.238Q113.83200000000001 -17.238 113.03300000000002 -16.626Q112.23400000000001 -16.014000000000003 111.69000000000001 -14.926000000000002Q111.14600000000002 -13.838000000000001 110.85700000000001 -12.376000000000001Q110.56800000000001 -10.914000000000001 110.56800000000001 -9.180000000000001Q110.56800000000001 -6.562 111.23100000000001 -5.066000000000001Q111.894 -3.5700000000000003 112.93100000000001 -2.958Q113.968 -2.346 115.09 -2.346Q115.736 -2.346 116.501 -2.55Q117.266 -2.754 118.065 -3.366Q118.864 -3.978 119.54400000000001 -5.1000000000000005L120.12200000000001 -4.896000000000001Q119.748 -3.6380000000000003 118.898 -2.3800000000000003Q118.048 -1.122 116.688 -0.32300000000000006Q115.328 0.47600000000000003 113.35600000000001 0.47600000000000003Q111.14600000000002 0.47600000000000003 109.36100000000002 -0.4930000000000001Q107.57600000000001 -1.4620000000000002 106.50500000000001 -3.4850000000000003Q105.43400000000001 -5.508 105.43400000000001 -8.704Q105.43400000000001 -11.764000000000001 106.53900000000002 -13.855Q107.644 -15.946000000000002 109.548 -17.0Q111.45200000000001 -18.054000000000002 113.86600000000001 -18.054000000000002Z M130.662 -18.054000000000002Q133.144 -18.054000000000002 135.014 -17.136000000000003Q136.88400000000001 -16.218 137.93800000000002 -14.178Q138.99200000000002 -12.138000000000002 138.99200000000002 -8.772Q138.99200000000002 -5.406000000000001 137.93800000000002 -3.3830000000000005Q136.88400000000001 -1.36 135.014 -0.44200000000000006Q133.144 0.47600000000000003 130.662 0.47600000000000003Q128.24800000000002 0.47600000000000003 126.36100000000002 -0.44200000000000006Q124.47400000000002 -1.36 123.40300000000002 -3.3830000000000005Q122.33200000000001 -5.406000000000001 122.33200000000001 -8.772Q122.33200000000001 -12.138000000000002 123.40300000000002 -14.178Q124.47400000000002 -16.218 126.36100000000002 -17.136000000000003Q128.24800000000002 -18.054000000000002 130.662 -18.054000000000002ZM130.662 -17.374000000000002Q129.30200000000002 -17.374000000000002 128.38400000000001 -15.351000000000003Q127.46600000000001 -13.328000000000001 127.46600000000001 -8.772Q127.46600000000001 -4.216 128.38400000000001 -2.21Q129.30200000000002 -0.20400000000000001 130.662 -0.20400000000000001Q132.056 -0.20400000000000001 132.957 -2.21Q133.858 -4.216 133.858 -8.772Q133.858 -13.328000000000001 132.957 -15.351000000000003Q132.056 -17.374000000000002 130.662 -17.374000000000002Z" fill="#111827"/>
  <path d="M35.768 -12.172Q37.094 -12.172 37.876000000000005 -11.475000000000001Q38.658 -10.778 38.658 -9.554000000000002Q38.658 -8.33 37.876000000000005 -7.633000000000001Q37.094 -6.936000000000001 35.768 -6.936000000000001Q34.442 -6.936000000000001 33.66 -7.633000000000001Q32.878 -8.33 32.878 -9.554000000000002Q32.878 -10.778 33.66 -11.475000000000001Q34.442 -12.172 35.768 -12.172Z M85.13600000000001 -27.778000000000002Q85.748 -28.322000000000003 86.58100000000002 -28.186Q87.41400000000002 -28.05 87.924 -27.404000000000003Q88.50200000000001 -26.758000000000003 88.84200000000001 -25.874000000000002Q89.18200000000002 -24.990000000000002 89.67500000000001 -23.749000000000002Q90.168 -22.508000000000003 91.15400000000001 -20.672L90.78000000000002 -20.366000000000003Q89.284 -21.76 88.21300000000001 -22.542Q87.14200000000001 -23.324 86.37700000000001 -23.868000000000002Q85.61200000000001 -24.412000000000003 85.034 -25.092000000000002Q84.49000000000001 -25.772000000000002 84.524 -26.537000000000003Q84.558 -27.302000000000003 85.13600000000001 -27.778000000000002Z M99.48400000000001 -12.172Q100.81 -12.172 101.59200000000001 -11.475000000000001Q102.37400000000001 -10.778 102.37400000000001 -9.554000000000002Q102.37400000000001 -8.33 101.59200000000001 -7.633000000000001Q100.81 -6.936000000000001 99.48400000000001 -6.936000000000001Q98.158 -6.936000000000001 97.376 -7.633000000000001Q96.59400000000001 -8.33 96.59400000000001 -9.554000000000002Q96.59400000000001 -10.778 97.376 -11.475000000000001Q98.158 -12.172 99.48400000000001 -12.172Z" fill="#e63946"/>
  <path d="M 35.77 -9.55 Q 67.63 30.45 99.48 -9.55" fill="none" stroke="#e63946" stroke-width="2.2" stroke-linecap="round" opacity="0.85"/>
  
</svg>
