<svg xmlns="http://www.w3.org/2000/svg" viewBox="0 0 64 64">
  <rect width="64" height="64" fill="#ffffff"/>
  <g transform="translate(17.79 49.69)">
    <path d="M23.736 -36.018V-5.06Q23.736 -2.9899999999999998 24.380000000000003 -2.001Q25.024 -1.012 26.68 -1.012V-0.046Q25.254 -0.184 23.828 -0.184Q21.896 -0.184 20.217 -0.046Q18.538 0.092 17.112 0.45999999999999996V-30.498Q17.112 -32.568 16.491 -33.557Q15.87 -34.546 14.168 -34.546V-35.512Q15.64 -35.374 17.02 -35.374Q18.906 -35.374 20.607999999999997 -35.535Q22.31 -35.696 23.736 -36.018ZM12.006 -24.426Q14.03 -24.426 15.570999999999998 -23.759Q17.112 -23.092 17.986 -21.528L17.434 -21.022Q16.836 -22.126 15.847 -22.609Q14.858 -23.092 13.754 -23.092Q11.408 -23.092 10.027999999999999 -20.354999999999997Q8.648 -17.618 8.693999999999999 -11.914Q8.693999999999999 -8.004 9.222999999999999 -5.681Q9.752 -3.358 10.741 -2.346Q11.73 -1.334 13.017999999999999 -1.334Q14.581999999999999 -1.334 15.823999999999998 -2.576Q17.066 -3.818 17.158 -5.934L17.387999999999998 -4.324Q16.698 -1.886 15.157 -0.621Q13.616 0.644 11.132 0.644Q8.418 0.644 6.279 -0.69Q4.14 -2.024 2.944 -4.807Q1.748 -7.59 1.748 -12.006Q1.748 -16.192 3.0820000000000003 -18.929000000000002Q4.416 -21.666 6.739 -23.046Q9.062 -24.426 12.006 -24.426Z" fill="#111827"/>
  </g>
</svg>
